<svg width="135" height="19" viewBox="0 0 135 19" fill="none" xmlns="http://www.w3.org/2000/svg">
<path d="M0.535373 1.2H3.65537V15.36H12.4394V18H0.535373V1.2ZM22.6859 18.24C20.9739 18.24 19.4299 17.872 18.0539 17.136C16.6779 16.384 15.5979 15.352 14.8139 14.04C14.0299 12.712 13.6379 11.232 13.6379 9.6C13.6379 7.968 14.0299 6.496 14.8139 5.184C15.5979 3.856 16.6779 2.824 18.0539 2.088C19.4299 1.336 20.9739 0.959999 22.6859 0.959999C24.3979 0.959999 25.9419 1.336 27.3179 2.088C28.6939 2.824 29.7739 3.848 30.5579 5.16C31.3419 6.472 31.7339 7.952 31.7339 9.6C31.7339 11.248 31.3419 12.728 30.5579 14.04C29.7739 15.352 28.6939 16.384 27.3179 17.136C25.9419 17.872 24.3979 18.24 22.6859 18.24ZM22.6859 15.504C23.8059 15.504 24.8139 15.256 25.7099 14.76C26.6059 14.248 27.3099 13.544 27.8219 12.648C28.3339 11.736 28.5899 10.72 28.5899 9.6C28.5899 8.48 28.3339 7.472 27.8219 6.576C27.3099 5.664 26.6059 4.96 25.7099 4.464C24.8139 3.952 23.8059 3.696 22.6859 3.696C21.5659 3.696 20.5579 3.952 19.6619 4.464C18.7659 4.96 18.0619 5.664 17.5499 6.576C17.0379 7.472 16.7819 8.48 16.7819 9.6C16.7819 10.72 17.0379 11.736 17.5499 12.648C18.0619 13.544 18.7659 14.248 19.6619 14.76C20.5579 15.256 21.5659 15.504 22.6859 15.504ZM45.9426 14.112H37.5426L35.8866 18H32.6706L40.2306 1.2H43.3026L50.8866 18H47.6226L45.9426 14.112ZM44.9106 11.664L41.7426 4.32L38.5986 11.664H44.9106ZM53.2632 1.2H60.6072C62.3992 1.2 63.9912 1.552 65.3832 2.256C66.7752 2.944 67.8552 3.928 68.6232 5.208C69.3912 6.472 69.7752 7.936 69.7752 9.6C69.7752 11.264 69.3912 12.736 68.6232 14.016C67.8552 15.28 66.7752 16.264 65.3832 16.968C63.9912 17.656 62.3992 18 60.6072 18H53.2632V1.2ZM60.4632 15.36C61.6952 15.36 62.7752 15.128 63.7032 14.664C64.6472 14.184 65.3672 13.512 65.8632 12.648C66.3752 11.768 66.6312 10.752 66.6312 9.6C66.6312 8.448 66.3752 7.44 65.8632 6.576C65.3672 5.696 64.6472 5.024 63.7032 4.56C62.7752 4.08 61.6952 3.84 60.4632 3.84H56.3832V15.36H60.4632ZM73.3313 1.2H76.4513V18H73.3313V1.2ZM96.1634 1.2V18H93.5954L84.3314 6.624V18H81.2354V1.2H83.8034L93.0674 12.576V1.2H96.1634ZM112.377 9.408H115.329V16.104C114.465 16.792 113.457 17.32 112.305 17.688C111.153 18.056 109.969 18.24 108.753 18.24C107.041 18.24 105.497 17.872 104.121 17.136C102.745 16.384 101.665 15.352 100.881 14.04C100.097 12.728 99.7051 11.248 99.7051 9.6C99.7051 7.952 100.097 6.472 100.881 5.16C101.665 3.848 102.745 2.824 104.121 2.088C105.513 1.336 107.073 0.959999 108.801 0.959999C110.209 0.959999 111.489 1.192 112.641 1.656C113.793 2.12 114.761 2.8 115.545 3.696L113.577 5.616C112.297 4.336 110.753 3.696 108.945 3.696C107.761 3.696 106.705 3.944 105.777 4.44C104.865 4.936 104.145 5.632 103.617 6.528C103.105 7.424 102.849 8.448 102.849 9.6C102.849 10.72 103.105 11.728 103.617 12.624C104.145 13.52 104.865 14.224 105.777 14.736C106.705 15.248 107.753 15.504 108.921 15.504C110.233 15.504 111.385 15.216 112.377 14.64V9.408ZM120.59 18.168C120.046 18.168 119.582 17.984 119.198 17.616C118.814 17.232 118.622 16.752 118.622 16.176C118.622 15.584 118.806 15.104 119.174 14.736C119.558 14.368 120.03 14.184 120.59 14.184C121.15 14.184 121.614 14.368 121.982 14.736C122.366 15.104 122.558 15.584 122.558 16.176C122.558 16.752 122.366 17.232 121.982 17.616C121.598 17.984 121.134 18.168 120.59 18.168ZM126.69 18.168C126.146 18.168 125.682 17.984 125.298 17.616C124.914 17.232 124.722 16.752 124.722 16.176C124.722 15.584 124.906 15.104 125.274 14.736C125.658 14.368 126.13 14.184 126.69 14.184C127.25 14.184 127.714 14.368 128.082 14.736C128.466 15.104 128.658 15.584 128.658 16.176C128.658 16.752 128.466 17.232 128.082 17.616C127.698 17.984 127.234 18.168 126.69 18.168ZM132.789 18.168C132.245 18.168 131.781 17.984 131.397 17.616C131.013 17.232 130.821 16.752 130.821 16.176C130.821 15.584 131.005 15.104 131.373 14.736C131.757 14.368 132.229 14.184 132.789 14.184C133.349 14.184 133.813 14.368 134.181 14.736C134.565 15.104 134.757 15.584 134.757 16.176C134.757 16.752 134.565 17.232 134.181 17.616C133.797 17.984 133.333 18.168 132.789 18.168Z" fill="#BDAFE9"/>
</svg>
